<svg width="108" height="42" viewBox="0 0 108 42" fill="none" xmlns="http://www.w3.org/2000/svg">
<g clip-path="url(#clip0_184_35054)">
<mask id="mask0_184_35054" style="mask-type:alpha" maskUnits="userSpaceOnUse" x="-5" y="0" width="39" height="43">
<path d="M33.7962 0.305786H3.22295V21.4013L-4.72609 42.4969H33.7962V0.305786Z" fill="#C4C4C4"/>
</mask>
<g mask="url(#mask0_184_35054)">
<path d="M-7.53642 55.2718L7.43077 55.4616L20.529 33.4254C22.3564 30.3495 21.3458 26.3735 18.2675 24.5437C18.2533 24.5339 18.2366 24.5265 18.2223 24.5167L12.6971 21.2323L9.39562 26.786C9.39316 26.7908 9.38827 26.7979 9.3858 26.8027C9.38091 26.8098 9.37599 26.8194 9.3711 26.8265L-7.53642 55.2718Z" fill="url(#paint0_linear_184_35054)"/>
<mask id="mask1_184_35054" style="mask-type:alpha" maskUnits="userSpaceOnUse" x="-8" y="21" width="30" height="35">
<path d="M-7.53642 55.2718L7.43077 55.4616L20.529 33.4254C22.3564 30.3495 21.3458 26.3735 18.2675 24.5437C18.2533 24.5339 18.2366 24.5265 18.2223 24.5167L12.6971 21.2323L9.39562 26.786C9.39316 26.7908 9.38827 26.7979 9.3858 26.8027C9.38091 26.8098 9.37599 26.8194 9.3711 26.8265L-7.53642 55.2718Z" fill="#DEE3DE"/>
</mask>
<g mask="url(#mask1_184_35054)">
<rect width="22.563" height="18.2527" transform="matrix(-0.884631 -0.466292 -0.466292 0.884631 28.4314 26.1156)" fill="url(#paint1_linear_184_35054)"/>
</g>
<path d="M-7.8103 -6.03597L-8.00011 8.92882L12.6971 21.2323L18.2222 24.5167C18.2365 24.5265 18.2532 24.5339 18.2675 24.5436C21.3457 26.3735 22.3563 30.3495 20.5289 33.4254L23.8403 27.855L27.1271 22.3251C27.1345 22.3108 27.1443 22.2989 27.1516 22.2846C27.159 22.2727 27.1639 22.2632 27.1713 22.2513C28.9722 19.1774 27.9566 15.2229 24.8902 13.4005L-7.8103 -6.03597Z" fill="url(#paint2_linear_184_35054)"/>
</g>
<path d="M46.1967 8.86621H45.1401L40.5223 10.0647V37.3947H46.1967V29.568L52.3799 37.3947H59.737L51.8711 27.7678L59.1109 18.6496H51.8711L46.1967 25.9677V8.86621Z" fill="#2A384F"/>
<path d="M77.8202 29.1766C77.9376 28.4331 78.0158 27.6895 78.0158 26.359C78.0158 22.3674 75.9418 18.1409 69.7195 18.1409C63.4581 18.1409 60.3665 22.837 60.3665 28.0418C60.3665 34.7336 63.8103 37.8643 70.1108 37.8643C72.3023 37.8643 74.7677 37.473 77.3114 36.6903V31.8377C75.6287 32.4639 73.3981 33.0117 71.5979 33.0117C68.4281 33.0117 66.5497 32.3856 66.4714 29.1766H77.8202ZM69.7195 22.4456C71.4414 22.4456 72.224 23.737 72.224 25.3807C72.224 25.4589 72.224 25.5763 72.224 25.6546H66.5105C66.7453 23.6979 67.7237 22.4456 69.7195 22.4456Z" fill="#2A384F"/>
<path d="M98.075 29.1766C98.1924 28.4331 98.2706 27.6895 98.2706 26.359C98.2706 22.3674 96.1965 18.1409 89.9743 18.1409C83.7129 18.1409 80.6213 22.837 80.6213 28.0418C80.6213 34.7336 84.0651 37.8643 90.3656 37.8643C92.5571 37.8643 95.0225 37.473 97.5662 36.6903V31.8377C95.8835 32.4639 93.6528 33.0117 91.8527 33.0117C88.6829 33.0117 86.8044 32.3856 86.7262 29.1766H98.075ZM89.9743 22.4456C91.6962 22.4456 92.4788 23.737 92.4788 25.3807C92.4788 25.4589 92.4788 25.5763 92.4788 25.6546H86.7653C87.0001 23.6979 87.9784 22.4456 89.9743 22.4456Z" fill="#2A384F"/>
<path d="M102.089 10.0647V37.3947H107.764V8.86621H106.668L102.089 10.0647Z" fill="#2A384F"/>
</g>
<defs>
<linearGradient id="paint0_linear_184_35054" x1="-3.19752" y1="52.892" x2="17.4446" y2="32.9648" gradientUnits="userSpaceOnUse">
<stop stop-color="#5BB7EB"/>
<stop offset="1" stop-color="#286FDE"/>
</linearGradient>
<linearGradient id="paint1_linear_184_35054" x1="8.79707" y1="3.31158" x2="11.3766" y2="9.0774" gradientUnits="userSpaceOnUse">
<stop stop-opacity="0.4"/>
<stop offset="1" stop-opacity="0"/>
</linearGradient>
<linearGradient id="paint2_linear_184_35054" x1="0.776512" y1="4.89198" x2="25.0311" y2="48.1086" gradientUnits="userSpaceOnUse">
<stop stop-color="#5BB7EB"/>
<stop offset="1" stop-color="#286FDE"/>
</linearGradient>
<clipPath id="clip0_184_35054">
<rect width="108" height="42" fill="white"/>
</clipPath>
</defs>
</svg>
