<svg width="32" height="32" viewBox="0 0 32 32" fill="none" xmlns="http://www.w3.org/2000/svg">
<path d="M9.69562 11.6499C9.45266 11.5057 9.30371 11.244 9.30371 10.9615V3.41304C9.30371 2.791 9.98217 2.40667 10.5157 2.72646L22.2535 9.76202C24.1566 10.8607 24.8131 13.2887 23.7278 15.1963C23.7233 15.2037 23.7204 15.2096 23.7159 15.2169C23.7115 15.2258 23.7056 15.2332 23.7012 15.2421L21.7345 19.1394L20.3926 21.5784C20.4049 21.5837 20.3594 21.5894 20.3926 21.5784C20.3876 21.5916 20.3796 21.5728 20.3926 21.5784C21.0738 19.7834 20.1128 17.9149 18.2329 16.6617L14.8038 14.6817L9.69562 11.6499Z" fill="black"/>
<path d="M18.0492 17.7825C19.9596 18.8856 20.6413 21.3432 19.5397 23.2522L16.5168 28.4879C16.3756 28.7324 16.1161 28.8845 15.8337 28.888L8.40689 28.9822C7.78622 28.9901 7.39316 28.3191 7.70353 27.7816L14.2197 16.4957C14.4408 16.1129 14.9304 15.9817 15.3132 16.2027L18.0492 17.7825Z" fill="black"/>
</svg>
