<svg width="32" height="32" viewBox="0 0 32 32" fill="none" xmlns="http://www.w3.org/2000/svg">
  <path fill-rule="evenodd" clip-rule="evenodd" d="M12.0405 8.01565C11.7492 8.30696 11.7492 8.77927 12.0405 9.07059L19.2201 16.2501L12.2462 23.2541C11.956 23.5456 11.9565 24.017 12.2474 24.3079L16.0608 28.1213C16.3527 28.4132 16.8263 28.4125 17.1173 28.1197L28.3897 16.7781L28.3738 16.7762L28.3846 16.7654C28.6759 16.4741 28.6759 16.0018 28.3846 15.7105L16.8926 4.21848C16.6013 3.92717 16.129 3.92717 15.8377 4.21848L12.0405 8.01565Z" fill="#30A5FF"/>
  <mask id="mask0_1_34" style="mask-type:alpha" maskUnits="userSpaceOnUse" x="11" y="4" width="18" height="25">
  <path fill-rule="evenodd" clip-rule="evenodd" d="M12.0405 8.01565C11.7492 8.30696 11.7492 8.77927 12.0405 9.07059L19.2201 16.2501L12.2462 23.2541C11.956 23.5456 11.9565 24.017 12.2474 24.3079L16.0608 28.1213C16.3527 28.4132 16.8263 28.4125 17.1173 28.1197L28.3897 16.7781L28.3738 16.7762L28.3846 16.7654C28.6759 16.4741 28.6759 16.0018 28.3846 15.7105L16.8926 4.21848C16.6013 3.92717 16.129 3.92717 15.8377 4.21848L12.0405 8.01565Z" fill="#485F5F"/>
  </mask>
  <g mask="url(#mask0_1_34)">
    <rect x="11.5338" y="16.3073" width="17.1396" height="12.0542" fill="#924FFF"/>
  </g>
  <path d="M13.9968 15.6061C14.2891 15.9022 14.2861 16.3792 13.99 16.6715L9.76532 20.8421C9.46921 21.1344 8.99221 21.1313 8.69989 20.8352L4.52936 16.6106C4.23704 16.3144 4.24012 15.8374 4.53622 15.5451L8.76087 11.3746C9.05697 11.0823 9.53398 11.0853 9.82629 11.3815L13.9968 15.6061Z" fill="#FFBA17"/>
  <mask id="mask1_1_34" style="mask-type:alpha" maskUnits="userSpaceOnUse" x="4" y="11" width="11" height="11">
  <path d="M13.9968 15.606C14.2891 15.9021 14.286 16.3791 13.9899 16.6714L9.76524 20.842C9.46914 21.1343 8.99213 21.1312 8.69982 20.8351L4.52928 16.6105C4.23697 16.3144 4.24004 15.8373 4.53615 15.545L8.76079 11.3745C9.0569 11.0822 9.5339 11.0853 9.82622 11.3814L13.9968 15.606Z" fill="#FFD337"/>
  </mask>
  <g mask="url(#mask1_1_34)">
    <rect x="2.86992" y="16.1189" width="12.6192" height="7.53388" fill="#FF866F"/>
  </g>
</svg>
