<svg viewBox="0 0 192 72" fill="none"
	xmlns="http://www.w3.org/2000/svg">
	<style>
            path {
                fill: black;
            }
            @media (prefers-color-scheme: dark) {
                path {
                    fill: white;
                }
            }
	</style>
	<path d="M78.28 15H76.552L69 16.96V61.656H78.28V48.856L88.392 61.656H100.424L87.56 45.912L99.4 31H87.56L78.28 42.968V15Z" />
	<path d="M129.998 48.216C130.19 47 130.317 45.784 130.317 43.608C130.317 37.08 126.926 30.168 116.75 30.168C106.509 30.168 101.453 37.848 101.453 46.36C101.453 57.304 107.085 62.424 117.389 62.424C120.974 62.424 125.006 61.784 129.166 60.504V52.568C126.414 53.592 122.766 54.488 119.822 54.488C114.638 54.488 111.566 53.464 111.438 48.216H129.998ZM116.75 37.208C119.566 37.208 120.846 39.32 120.846 42.008C120.846 42.136 120.846 42.328 120.846 42.456H111.501C111.885 39.256 113.486 37.208 116.75 37.208Z" />
	<path d="M163.123 48.216C163.315 47 163.442 45.784 163.442 43.608C163.442 37.08 160.051 30.168 149.875 30.168C139.635 30.168 134.578 37.848 134.578 46.36C134.578 57.304 140.211 62.424 150.515 62.424C154.099 62.424 158.131 61.784 162.291 60.504V52.568C159.539 53.592 155.891 54.488 152.947 54.488C147.763 54.488 144.691 53.464 144.562 48.216H163.123ZM149.875 37.208C152.691 37.208 153.97 39.32 153.97 42.008C153.97 42.136 153.97 42.328 153.97 42.456H144.627C145.011 39.256 146.611 37.208 149.875 37.208Z" />
	<path d="M169.688 16.96V61.656H178.967V15H177.175L169.688 16.96Z" />
	<path d="M13.3845 26.6182C13.1371 26.4714 12.9854 26.2049 12.9854 25.9172V7.43914C12.9854 6.80561 13.6763 6.41418 14.2197 6.73988L41.012 22.799C45.1307 25.1768 46.5517 30.4317 44.2027 34.5601C44.193 34.5761 44.1867 34.5889 44.177 34.6048C44.1674 34.6241 44.1546 34.6401 44.1451 34.6593L39.8887 43.094L36.9846 48.3726C37.0111 48.384 36.9127 48.3964 36.9846 48.3726C36.9737 48.4012 36.9564 48.3605 36.9846 48.3726C38.4588 44.4878 36.379 40.4439 32.3104 37.7316L24.8889 33.4464L13.3845 26.6182Z" />
	<path d="M30.9132 41.1575C35.0479 43.5449 36.5233 48.8638 34.139 52.9953L27.3359 64.7786C27.1921 65.0277 26.9277 65.1825 26.6402 65.1862L8.43289 65.417C7.80074 65.4251 7.40042 64.7417 7.71653 64.1942L23.0839 37.5783C23.3091 37.1884 23.8077 37.0548 24.1976 37.28L30.9132 41.1575Z" />
</svg>