<svg width="450" height="176" viewBox="0 0 450 176" fill="none"
	xmlns="http://www.w3.org/2000/svg">
	<style>
			#name {
					fill: #fff;
			}
			@media (prefers-color-scheme: dark) {
					#name path {
							fill: #000;
					}
			}
	</style>
	<path id="name" d="M220.509 135.955H228.875V141.344H196.971V135.955H205.195V60.662C205.195 55.6991 203.635 53.1468 196.829 51.7288V48.4675L219.658 40.6688H220.509V107.455C229.017 92.2824 243.338 74.1325 256.383 74.1325C262.48 74.1325 266.592 77.3938 266.592 82.2149C266.592 86.4688 262.48 89.8719 257.234 89.8719C252.697 89.8719 248.301 86.7524 246.316 82.7821C242.771 85.3344 239.368 88.7375 236.106 92.566L261.771 135.955H269.57V141.344H237.383V135.955H244.756L226.464 105.328C224.337 108.447 222.352 111.85 220.509 115.395V135.955Z"/>
	<path id="name" d="M299.416 78.9536C289.632 78.9536 283.677 91.5734 283.677 103.059L303.244 99.7976C308.207 98.9468 310.476 97.5288 310.476 93.1332C310.476 86.4688 307.215 78.9536 299.416 78.9536ZM326.357 124.895C321.678 135.388 311.894 142.762 299.274 142.762C281.975 142.762 270.064 128.582 270.064 110.149C270.064 89.0211 284.527 74.1325 299.983 74.1325C316.29 74.1325 325.506 85.618 325.506 101.499L283.96 108.164C285.52 123.619 294.737 132.552 306.08 132.552C312.887 132.552 318.7 129.716 323.663 122.91L326.357 124.895Z" />
	<path id="name" d="M361.108 78.9536C351.324 78.9536 345.369 91.5734 345.369 103.059L364.937 99.7976C369.9 98.9468 372.168 97.5288 372.168 93.1332C372.168 86.4688 368.907 78.9536 361.108 78.9536ZM388.049 124.895C383.37 135.388 373.586 142.762 360.966 142.762C343.667 142.762 331.756 128.582 331.756 110.149C331.756 89.0211 346.22 74.1325 361.675 74.1325C377.982 74.1325 387.199 85.618 387.199 101.499L345.652 108.164C347.212 123.619 356.429 132.552 367.773 132.552C374.579 132.552 380.392 129.716 385.355 122.91L388.049 124.895Z" />
	<path id="name" d="M414.725 135.955H423.091V141.344H391.187V135.955H399.411V60.662C399.411 55.6991 397.851 53.1468 391.045 51.7288V48.4675L413.874 40.6688H414.725V135.955Z" />

	<path fill-rule="evenodd" clip-rule="evenodd" d="M68.6868 46.3205C67.1402 47.8672 67.1401 50.3748 68.6868 51.9215L106.806 90.0403L69.7791 127.227C68.2381 128.774 68.2408 131.277 69.7851 132.822L90.0318 153.068C91.5818 154.618 94.0961 154.614 95.6414 153.06L155.491 92.8437L155.406 92.8335L155.463 92.7761C157.01 91.2295 157.01 88.7218 155.463 87.1751L94.4484 26.16C92.9017 24.6133 90.394 24.6133 88.8473 26.16L68.6868 46.3205Z" fill="#30A5FF"/>
	<mask id="mask0_1_195" style="mask-type:alpha" maskUnits="userSpaceOnUse" x="67" y="25" width="90" height="130">
		<path fill-rule="evenodd" clip-rule="evenodd" d="M68.6868 46.3205C67.1402 47.8672 67.1401 50.3748 68.6868 51.9215L106.806 90.0403L69.7791 127.227C68.2381 128.774 68.2408 131.277 69.7851 132.822L90.0318 153.068C91.5818 154.618 94.0961 154.614 95.6414 153.06L155.491 92.8437L155.406 92.8335L155.463 92.7761C157.01 91.2295 157.01 88.7218 155.463 87.1751L94.4484 26.16C92.9017 24.6133 90.394 24.6133 88.8473 26.16L68.6868 46.3205Z" fill="#485F5F"/>
	</mask>
	<g mask="url(#mask0_1_195)">
		<rect x="65.9967" y="90.3438" width="91" height="64" fill="#924FFF"/>
	</g>
	<path d="M79.0763 86.6204C80.6283 88.1926 80.6119 90.7252 79.0398 92.2772L56.6097 114.42C55.0376 115.972 52.505 115.956 50.953 114.384L28.8101 91.9535C27.2581 90.3813 27.2745 87.8487 28.8466 86.2967L51.2767 64.1539C52.8488 62.6019 55.3814 62.6182 56.9334 64.1903L79.0763 86.6204Z" fill="#FFBA17"/>
	<mask id="mask1_1_195" style="mask-type:alpha" maskUnits="userSpaceOnUse" x="27" y="63" width="54" height="53">
		<path d="M79.0763 86.6204C80.6283 88.1926 80.612 90.7252 79.0398 92.2772L56.6097 114.42C55.0376 115.972 52.505 115.956 50.953 114.384L28.8102 91.9535C27.2582 90.3813 27.2745 87.8487 28.8466 86.2967L51.2767 64.1539C52.8488 62.6019 55.3815 62.6182 56.9334 64.1903L79.0763 86.6204Z" fill="#FFD337"/>
	</mask>
	<g mask="url(#mask1_1_195)">
		<rect x="20" y="89.3438" width="67" height="40" fill="#FF866F"/>
	</g>
</svg>
